<?xml version="1.0" encoding="iso-8859-1"?>
<!-- Generator: Adobe Illustrator 22.0.1, SVG Export Plug-In . SVG Version: 6.00 Build 0)  -->
<svg version="1.1" id="Layer_1" xmlns="http://www.w3.org/2000/svg" xmlns:xlink="http://www.w3.org/1999/xlink" x="0px" y="0px"
	 viewBox="0 0 559.688 231.605" style="enable-background:new 0 0 559.688 231.605;" xml:space="preserve">
<g>
	<g>
		<polygon style="fill:#FFFFFF;" points="333.229,37.314 312.05,37.432 280.156,117.716 302.346,117.743 		"/>
		<polygon style="fill:#F25F2C;" points="302.346,117.743 280.127,117.77 250.393,65.725 272.51,66 		"/>
	</g>
	<g>
		<g>
			<path style="fill:#FFFFFF;" d="M56.732,58.958c-5.689-5.364-12.191-7.153-19.832-7.153c-9.428,0-14.629,2.927-14.629,7.965
				c0,5.203,4.714,8.128,14.955,8.779c15.117,0.975,34.298,4.389,34.298,25.683c0,14.143-11.541,26.335-34.461,26.335
				c-12.679,0-25.359-2.114-37.063-14.306l9.754-14.142c5.689,6.34,18.694,11.054,27.634,11.217
				c7.477,0.162,14.467-3.739,14.467-9.591c0-5.527-4.551-7.803-15.93-8.453C20.807,84.154,2.764,78.627,2.764,60.421
				c0-18.531,19.181-25.034,33.812-25.034c12.516,0,21.945,2.439,31.21,10.566L56.732,58.958z"/>
			<path style="fill:#FFFFFF;" d="M107.649,84.804c1.3,9.916,9.915,17.068,23.895,17.068c7.315,0,16.905-2.764,21.458-7.478
				l12.679,12.517c-8.453,8.778-22.27,13.005-34.463,13.005c-27.634,0-44.052-17.069-44.052-42.752
				c0-24.384,16.581-41.94,42.59-41.94c26.821,0,43.565,16.581,40.476,49.58H107.649z M151.213,68.386
				c-1.301-10.404-9.428-15.606-20.807-15.606c-10.729,0-19.507,5.202-22.433,15.606H151.213z"/>
			<path style="fill:#FFFFFF;" d="M208.766,37.663l1.463,9.266c6.178-9.916,14.468-11.379,22.596-11.379
				c8.29,0,16.256,3.251,20.644,7.641l-8.94,16.189c-4.064-3.414-10.257-4.314-14.305-4.161
				c-10.396,0.394-19.995,5.527-19.995,20.32v42.264h-19.832v-80.14L208.766,37.663L208.766,37.663z"/>
			<path style="fill:#FFFFFF;" d="M368.97,15.068c0,15.443-23.409,15.443-23.409,0S368.97-0.375,368.97,15.068 M347.348,117.802
				h19.832V37.338h-19.832V117.802z"/>
			<path style="fill:#FFFFFF;" d="M459.619,107.562c-9.266,9.103-19.019,12.679-30.885,12.679c-23.246,0-42.591-13.98-42.591-42.426
				c0-28.448,19.345-42.428,42.591-42.428c11.378,0,20.156,3.251,28.935,11.867l-12.518,13.167
				c-4.714-4.227-10.565-6.34-16.093-6.34c-13.329,0-23.083,9.754-23.083,23.734c0,15.279,10.404,23.407,22.759,23.407
				c6.339,0,12.679-1.788,17.555-6.665L459.619,107.562z"/>
			<path style="fill:#FFFFFF;" d="M491.797,84.804c1.3,9.916,9.915,17.068,23.895,17.068c7.315,0,16.905-2.764,21.458-7.478
				l12.679,12.517c-8.453,8.778-22.27,13.005-34.463,13.005c-27.634,0-44.052-17.069-44.052-42.752
				c0-24.384,16.581-41.94,42.59-41.94c26.821,0,43.565,16.581,40.476,49.58H491.797z M535.362,68.386
				c-1.301-10.404-9.428-15.606-20.807-15.606c-10.729,0-19.507,5.202-22.433,15.606H535.362z"/>
			<path style="fill:#FFFFFF;" d="M8.893,158.197c5.504-8.958,16.809-14.955,27.212-14.955c12.192,0,25.033,5.527,29.748,19.832
				c4.877-13.167,17.393-19.832,29.748-19.832c19.669,0,33.648,13.817,33.648,33.812v48.116h-7.965v-48.116
				c0-15.443-10.404-26.335-25.683-26.335c-15.28,0-25.847,11.38-25.847,26.822v47.629h-7.965v-47.629
				c0-15.442-10.566-26.659-25.846-26.659c-16.715,0-25.684,15.376-25.684,33.847v40.441H2.294c0,0,0.059-35.269,0-43.15
				C2.234,174.139,4.697,165.026,8.893,158.197"/>
			<path style="fill:#FFFFFF;" d="M230.722,144.866v80.303h-7.965v-17.068c-7.802,12.516-19.831,18.368-32.835,18.368
				c-22.433,0-40.802-16.905-40.802-41.451s18.369-41.127,40.802-41.127c13.004,0,26.171,6.015,32.835,18.531v-17.556
				L230.722,144.866L230.722,144.866z M157.085,185.018c0,20.156,14.631,33.649,32.837,33.649c44.702,0,44.702-67.135,0-67.135
				C171.716,151.532,157.085,164.861,157.085,185.018"/>
			<path style="fill:#FFFFFF;" d="M265.146,144.867l0.325,14.305c5.039-10.89,16.418-15.117,26.659-15.117
				c6.014-0.163,11.866,1.463,17.231,4.714l-3.576,6.502c-4.227-2.601-8.941-3.738-13.655-3.738
				c-14.955,0.162-26.497,12.191-26.497,26.82v46.817h-7.965v-80.303L265.146,144.867L265.146,144.867z"/>
			<polygon style="fill:#FFFFFF;" points="337.484,125.959 337.484,179.979 375.359,144.867 385.926,144.867 385.926,145.192 
				345.286,182.743 390.64,224.681 390.64,225.169 380.561,225.169 337.484,185.831 337.484,225.169 329.681,225.169 329.681,127 
							"/>
			<path style="fill:#FFFFFF;" d="M402.396,185.019c0-24.058,18.206-41.452,40.802-41.452c22.595,0,42.752,13.818,39.664,45.191
				h-72.338c1.626,18.856,16.093,29.747,32.674,29.747c10.566,0,22.92-4.227,28.935-12.192l5.689,4.552
				c-7.802,10.241-21.782,15.443-34.624,15.443C420.602,226.308,402.396,210.54,402.396,185.019 M475.709,181.768
				c-0.163-19.832-13.167-30.886-32.511-30.886c-16.581,0-30.885,11.217-32.674,30.886H475.709z"/>
			<path style="fill:#FFFFFF;" d="M524.341,125.853v19.014h27.31v6.666h-27.31v48.928c0,10.892,2.276,18.531,14.793,18.531
				c3.901,0,8.29-1.3,12.354-3.251l2.763,6.503c-5.039,2.438-10.078,4.064-15.117,4.064c-17.069,0-22.595-10.079-22.595-25.847
				v-48.928h-17.068v-6.666h17.068v-18.2L524.341,125.853z"/>
		</g>
	</g>
</g>
</svg>
