<?xml version="1.0" encoding="utf-8"?>
<!-- Generator: Adobe Illustrator 21.0.0, SVG Export Plug-In . SVG Version: 6.00 Build 0)  -->
<svg version="1.1" id="Capa_1" xmlns="http://www.w3.org/2000/svg" xmlns:xlink="http://www.w3.org/1999/xlink" x="0px" y="0px"
	 viewBox="0 0 400 200" style="enable-background:new 0 0 400 200;" xml:space="preserve">
<style type="text/css">
	.st0{fill:#FFFFFF;}
	.st1{fill:#6DA544;}
	.st2{fill:#91DC5A;}
</style>
<g id="XMLID_1378_">
	<path id="XMLID_1384_" class="st0" d="M143.4,30H54.9C53.7,43.2,43.2,53.7,30,54.9v90.2c13.2,1.2,23.7,11.7,24.9,24.9h88.6
		C123,153.5,110,128.3,110,100S123,46.5,143.4,30z"/>
	<path id="XMLID_1385_" class="st0" d="M256.6,170h88.6c1.2-13.2,11.7-23.7,24.9-24.9V54.9c-13.2-1.2-23.7-11.7-24.9-24.9h-88.6
		C277,46.5,290,71.7,290,100S277,153.5,256.6,170z"/>
	<path id="XMLID_1386_" class="st1" d="M200,0v24.5h6.8v16.3c7,0.6,13.5,2.2,19.6,4.7c6.1,2.5,11.4,5,15.9,7.6l-11.6,21.9
		c-0.3-0.4-1.3-1.1-2.8-2.1c-1.6-1-3.5-2-6-3.1c-2.4-1.1-5.1-2.2-8-3.2c-3-1-5.9-1.7-8.9-2.2v21.9l5.2,1.3
		c5.5,1.5,10.4,3.1,14.8,4.9c4.4,1.8,8.1,4,11.2,6.6c3.1,2.6,5.4,5.8,7.1,9.6c1.7,3.8,2.5,8.3,2.5,13.5c0,6.1-1.1,11.3-3.2,15.6
		c-2.2,4.3-5,7.8-8.6,10.5c-3.6,2.7-7.7,4.8-12.4,6.2c-4.7,1.4-9.6,2.2-14.7,2.4v18.7H200V200h200V0H200z M256.6,30h88.6
		c1.2,13.2,11.7,23.7,24.9,24.9v90.2c-13.2,1.2-23.7,11.7-24.9,24.9h-88.6c20.4-16.5,33.4-41.7,33.4-70S277,46.5,256.6,30z"/>
	<path id="XMLID_1389_" class="st1" d="M217.5,124.6c0-2.8-1.1-5-3.4-6.5c-2.3-1.6-5.3-3-9-4.3v19.3
		C213.3,132.8,217.5,130,217.5,124.6z"/>
	<path id="XMLID_1390_" class="st2" d="M186.2,73.4c0,2.7,0.9,4.8,2.8,6.4c1.9,1.6,4.7,2.9,8.4,4.1V64.1
		C190,64.7,186.2,67.9,186.2,73.4z"/>
	<path id="XMLID_1391_" class="st2" d="M200,175.5h-4.3v-18.8c-7.4-0.6-14.7-2.1-22-4.5c-7.2-2.4-13.8-5.5-19.6-9.3l11.6-23
		c0.4,0.5,1.6,1.4,3.5,2.7c1.9,1.2,4.3,2.5,7.2,3.9c2.9,1.3,6.2,2.6,9.8,3.9c3.6,1.2,7.4,2.1,11.3,2.7v-21.4l-7.7-2.3
		c-5.3-1.6-9.8-3.4-13.7-5.2c-3.9-1.9-7.1-4.1-9.6-6.5c-2.5-2.5-4.4-5.3-5.6-8.5c-1.2-3.2-1.9-7-1.9-11.3c0-5.6,1-10.5,2.9-14.9
		c1.9-4.3,4.5-8.1,7.8-11.2c3.3-3.1,7.1-5.6,11.6-7.3c4.5-1.8,9.3-2.9,14.4-3.5V24.5h4.3V0H0v200h200V175.5z M143.4,170H54.9
		c-1.2-13.2-11.7-23.7-24.9-24.9V54.9C43.2,53.7,53.7,43.2,54.9,30h88.6C123,46.5,110,71.7,110,100S123,153.5,143.4,170z"/>
	<path id="XMLID_1394_" class="st0" d="M195.7,40.8c-5.2,0.5-10,1.7-14.4,3.5c-4.5,1.8-8.3,4.2-11.6,7.3c-3.3,3.1-5.9,6.8-7.8,11.2
		C160,67.1,159,72,159,77.6c0,4.3,0.6,8.1,1.9,11.3c1.2,3.2,3.1,6.1,5.6,8.5c2.5,2.5,5.7,4.6,9.6,6.5c3.9,1.9,8.4,3.6,13.7,5.2
		l7.7,2.3v21.4c-3.9-0.5-7.6-1.4-11.3-2.7c-3.6-1.2-6.9-2.5-9.8-3.9c-2.9-1.3-5.3-2.6-7.2-3.9c-1.9-1.2-3-2.1-3.5-2.7l-11.6,23
		c5.8,3.9,12.3,7,19.6,9.3c7.2,2.4,14.6,3.9,22,4.5v18.8h4.3h6.8v-18.7c5.2-0.2,10.1-1,14.7-2.4c4.7-1.4,8.8-3.5,12.4-6.2
		c3.6-2.7,6.5-6.2,8.6-10.5c2.1-4.3,3.2-9.5,3.2-15.6c0-5.3-0.8-9.8-2.5-13.5c-1.7-3.8-4-6.9-7.1-9.6c-3.1-2.6-6.8-4.8-11.2-6.6
		c-4.4-1.8-9.3-3.4-14.8-4.9l-5.2-1.3V64.3c3,0.4,6,1.1,8.9,2.2c3,1,5.6,2.1,8,3.2c2.4,1.1,4.4,2.2,6,3.1c1.6,1,2.5,1.7,2.8,2.1
		L242.4,53c-4.5-2.6-9.8-5.1-15.9-7.6c-6.1-2.5-12.7-4-19.6-4.7V24.5H200h-4.3V40.8z M205.1,113.8c3.8,1.3,6.8,2.7,9,4.3
		c2.3,1.6,3.4,3.7,3.4,6.5c0,5.4-4.1,8.2-12.4,8.5L205.1,113.8L205.1,113.8z M197.5,83.9c-3.8-1.2-6.6-2.5-8.4-4.1
		c-1.9-1.6-2.8-3.7-2.8-6.4c0-5.6,3.8-8.7,11.3-9.3L197.5,83.9L197.5,83.9z"/>
</g>
</svg>
